<mxfile host="app.diagrams.net" agent="Mozilla/5.0 (Windows NT 10.0; Win64; x64) AppleWebKit/537.36 (KHTML, like Gecko) Chrome/127.0.0.0 Safari/537.36 OPR/113.0.0.0" version="24.7.17">
  <diagram name="Página-1" id="5qikMvd0muv7dqA666L_">
    <mxGraphModel dx="1393" dy="763" grid="1" gridSize="10" guides="1" tooltips="1" connect="1" arrows="1" fold="1" page="1" pageScale="1" pageWidth="827" pageHeight="1169" math="0" shadow="0">
      <root>
        <mxCell id="0" />
        <mxCell id="1" parent="0" />
        <mxCell id="PJO3bO583NKL84A6-dy7-1" value="" style="rounded=0;whiteSpace=wrap;html=1;rotation=90;" vertex="1" parent="1">
          <mxGeometry x="-86.25" y="213.25" width="994" height="640" as="geometry" />
        </mxCell>
        <mxCell id="PJO3bO583NKL84A6-dy7-2" value="" style="rounded=0;whiteSpace=wrap;html=1;" vertex="1" parent="1">
          <mxGeometry x="90.75" y="170" width="640" height="60" as="geometry" />
        </mxCell>
        <mxCell id="PJO3bO583NKL84A6-dy7-3" value="Foto 1" style="rounded=1;whiteSpace=wrap;html=1;rotation=0;" vertex="1" parent="1">
          <mxGeometry x="260" y="60" width="80" height="80" as="geometry" />
        </mxCell>
        <mxCell id="PJO3bO583NKL84A6-dy7-4" value="&lt;font style=&quot;font-size: 14px;&quot;&gt;Cauan Pontes Carvalho&lt;/font&gt;" style="text;html=1;align=center;verticalAlign=middle;whiteSpace=wrap;rounded=0;" vertex="1" parent="1">
          <mxGeometry x="370" y="85" width="180" height="30" as="geometry" />
        </mxCell>
        <mxCell id="PJO3bO583NKL84A6-dy7-12" value="" style="rounded=0;whiteSpace=wrap;html=1;" vertex="1" parent="1">
          <mxGeometry x="90" y="170" width="100" height="60" as="geometry" />
        </mxCell>
        <mxCell id="PJO3bO583NKL84A6-dy7-13" value="" style="rounded=1;whiteSpace=wrap;html=1;" vertex="1" parent="1">
          <mxGeometry x="200" y="175" width="520" height="50" as="geometry" />
        </mxCell>
        <mxCell id="PJO3bO583NKL84A6-dy7-10" value="Tecnologias que domino" style="rounded=1;whiteSpace=wrap;html=1;" vertex="1" parent="1">
          <mxGeometry x="590" y="185" width="100" height="30" as="geometry" />
        </mxCell>
        <mxCell id="PJO3bO583NKL84A6-dy7-6" value="Experiências" style="rounded=1;whiteSpace=wrap;html=1;" vertex="1" parent="1">
          <mxGeometry x="410" y="185" width="100" height="30" as="geometry" />
        </mxCell>
        <mxCell id="PJO3bO583NKL84A6-dy7-11" value="Sobre Mim" style="rounded=1;whiteSpace=wrap;html=1;" vertex="1" parent="1">
          <mxGeometry x="230" y="185" width="100" height="30" as="geometry" />
        </mxCell>
        <mxCell id="PJO3bO583NKL84A6-dy7-14" value="Meu Portfolio" style="text;html=1;align=center;verticalAlign=middle;whiteSpace=wrap;rounded=0;" vertex="1" parent="1">
          <mxGeometry x="110" y="185" width="60" height="30" as="geometry" />
        </mxCell>
        <mxCell id="PJO3bO583NKL84A6-dy7-15" value="Foto 1" style="rounded=1;whiteSpace=wrap;html=1;rotation=0;" vertex="1" parent="1">
          <mxGeometry x="230" y="280" width="140" height="150" as="geometry" />
        </mxCell>
        <mxCell id="PJO3bO583NKL84A6-dy7-16" value="Sobre mim" style="text;html=1;align=center;verticalAlign=middle;whiteSpace=wrap;rounded=0;" vertex="1" parent="1">
          <mxGeometry x="430" y="330" width="60" height="30" as="geometry" />
        </mxCell>
        <mxCell id="PJO3bO583NKL84A6-dy7-18" value="&lt;h1 style=&quot;margin-top: 0px; font-size: 21px;&quot;&gt;&lt;font style=&quot;font-size: 21px;&quot;&gt;Experiências&lt;/font&gt;&lt;/h1&gt;&lt;p style=&quot;font-size: 21px;&quot;&gt;&lt;br&gt;&lt;/p&gt;" style="text;html=1;whiteSpace=wrap;overflow=hidden;rounded=0;" vertex="1" parent="1">
          <mxGeometry x="349" y="510" width="130" height="40" as="geometry" />
        </mxCell>
        <mxCell id="PJO3bO583NKL84A6-dy7-19" value="Text" style="text;html=1;align=center;verticalAlign=middle;whiteSpace=wrap;rounded=0;" vertex="1" parent="1">
          <mxGeometry x="380.75" y="570" width="60" height="30" as="geometry" />
        </mxCell>
        <mxCell id="PJO3bO583NKL84A6-dy7-20" value="&lt;h1 style=&quot;margin-top: 0px; font-size: 21px;&quot;&gt;Tecnologias que domino&lt;/h1&gt;" style="text;html=1;whiteSpace=wrap;overflow=hidden;rounded=0;" vertex="1" parent="1">
          <mxGeometry x="286" y="670" width="254.25" height="40" as="geometry" />
        </mxCell>
        <mxCell id="PJO3bO583NKL84A6-dy7-21" value="Text" style="text;html=1;align=center;verticalAlign=middle;whiteSpace=wrap;rounded=0;" vertex="1" parent="1">
          <mxGeometry x="384" y="770" width="60" height="30" as="geometry" />
        </mxCell>
        <mxCell id="PJO3bO583NKL84A6-dy7-22" value="" style="rounded=0;whiteSpace=wrap;html=1;" vertex="1" parent="1">
          <mxGeometry x="90.75" y="970" width="639.25" height="60" as="geometry" />
        </mxCell>
        <mxCell id="PJO3bO583NKL84A6-dy7-23" value="Social 1" style="whiteSpace=wrap;html=1;aspect=fixed;" vertex="1" parent="1">
          <mxGeometry x="286" y="982.5" width="35" height="35" as="geometry" />
        </mxCell>
        <mxCell id="PJO3bO583NKL84A6-dy7-24" value="Social 2" style="whiteSpace=wrap;html=1;aspect=fixed;" vertex="1" parent="1">
          <mxGeometry x="479" y="982.5" width="35" height="35" as="geometry" />
        </mxCell>
      </root>
    </mxGraphModel>
  </diagram>
</mxfile>
